<svg xmlns="http://www.w3.org/2000/svg" viewBox="0 0 1000 1000" fill="#1ab3ff">
  <g transform="scale(1, -1) translate(0, -1000)">
  <path d="M708 917q33 0 61 -16t45 -43t19 -59v-49h49q30 -2 52 -20.5t25 -46.5v-105q-2 -14 -12 -24t-25 -12h-9q-15 2 -25 12t-12 24v89h-43v-417q0 -16 -10.5 -28t-25.5 -13l-47 -1v-62q0 -26 -18.5 -44.5t-44 -18.5t-44 18.5t-18.5 44.5v62h-250v-62q0 -26 -18.5 -44.5
t-44 -18.5t-44 18.5t-18.5 44.5v62h-42q-16 0 -27.5 11t-13.5 26v422h-42v-84q0 -16 -10.5 -27.5t-26.5 -13.5h-5q-16 0 -27.5 10.5t-13.5 25.5v99q0 30 22.5 50.5t54.5 22.5h48v42q0 32 15.5 60t42.5 45.5t59 18.5zM667 375h-42q-17 0 -29.5 -12t-12.5 -29.5t12.5 -29.5
t29.5 -12h42q17 0 29 12t12 29.5t-12 29.5t-29 12zM375 375h-42q-17 0 -29 -12t-12 -29.5t12 -29.5t29 -12h42q17 0 29.5 12t12.5 29.5t-12.5 29.5t-29.5 12zM357 833h-65h-5q-15 -2 -25 -12t-12 -24v-339h500v339q-2 13 -10.5 22.5t-21.5 12.5l-5 1h-70l-38 -66
q-13 -17 -34 -17h-147q-21 3 -31 21z"/>
    </g>
</svg>