<svg xmlns="http://www.w3.org/2000/svg" viewBox="0 0 1000 1000" fill="#1ab3ff">
  <g transform="scale(1, -1) translate(0, -1000)">
  <path d="M512 217l135 204l203 -40q29 -6 48 -29t19 -53v-153q0 -26 -18.5 -44.5t-44.5 -18.5h-104q-136 0 -259 53q-120 50 -212.5 142.5t-142.5 212.5q-53 123 -53 259v104q0 26 18.5 44.5t44.5 18.5h153q30 0 53 -19t29 -48l40 -203l-204 -135q44 -98 120.5 -174.5
t174.5 -120.5zM750 167h42h41v132l-147 30l-94 -141q77 -21 158 -21zM329 686l-30 147h-132v-83q0 -81 21 -158z"/>
    </g>
</svg>