<svg xmlns="http://www.w3.org/2000/svg" viewBox="0 0 1000 1000" fill="#1ab3ff">
  <g transform="scale(1, -1) translate(0, -1000)">
  <path d="M725 885q-112 32 -225 32q-76 0 -151 -15q39 -63 64 -115q46 5 87 5q72 0 163 -16q13 -2 22.5 -11t11.5 -22l22 -111l1 -4q0 -7 -5 -13t-12 -7q-4 -1 -8 -1q-100 16 -195 16h-42q0 -69 -31 -125.5t-83 -89.5t-115 -33q-41 0 -78.5 14.5t-67.5 41.5l1 -126
q2 -35 25.5 -61.5t57.5 -33.5v-64q0 -26 18 -44.5t44 -18.5t44.5 18.5t18.5 44.5v62h416v-62q0 -26 18.5 -44.5t44.5 -18.5t44 18.5t18 44.5v64q36 8 60 36.5t24 65.5v184l-1 15q-4 29 -23 51.5t-47 32.5l-49 219q-8 26 -27 44.5t-45 26.5zM667 396q0 26 18 44t44 18
t44.5 -18t18.5 -44t-18.5 -44.5t-44.5 -18.5t-44 18.5t-18 44.5zM256 893l-9 14q-5 7 -13.5 8.5t-15.5 -2.5q-4 -3 -6 -6l-26 -41q-103 -162 -103 -241q0 -47 20 -85t53.5 -60t73 -22t73 22t53 60t19.5 85q0 86 -119 268z"/>
    </g>
</svg>