<svg xmlns="http://www.w3.org/2000/svg" viewBox="0 0 1000 1000" fill="#1ab3ff">
  <g transform="scale(1, -1) translate(0, -1000)">
  <path d="M833 375h-7q-13 37 -45.5 60t-72.5 23t-72 -23t-45 -60h-140q-13 37 -45.5 60t-72.5 23t-72 -23t-45 -60h-49v42q0 34 24.5 58.5t58.5 24.5h580q3 -23 3 -42v-83zM708 292q-17 0 -29 12t-12 29t12 29.5t29.5 12.5t29.5 -12.5t12 -29.5t-12 -29t-30 -12v0zM333 292
q-17 0 -29 12t-12 29t12 29.5t29.5 12.5t29.5 -12.5t12 -29.5t-12 -29t-30 -12v0zM500 746v-163h-162q12 61 56.5 105.5t105.5 57.5v0zM805 583h-222v164q73 -11 132 -54.5t90 -109.5v0zM542 833q-72 0 -136 -33q-61 -33 -102 -90t-51 -127h-3q-45 0 -83.5 -22.5t-61 -60.5
t-22.5 -83v-84q0 -17 12.5 -29t29.5 -12h91q13 -37 45 -60.5t72 -23.5t72.5 23.5t45.5 60.5h140q13 -37 45 -60.5t72 -23.5t72.5 23.5t45.5 60.5h49q17 0 29.5 12t12.5 29v125q0 102 -52 189q-49 85 -134 135q-88 51 -189 51v0z"/>
    </g>
</svg>