<svg xmlns="http://www.w3.org/2000/svg" viewBox="0 0 1000 1000" fill="#1ab3ff">
  <g transform="scale(1, -1) translate(0, -1000)">
  <path d="M343 245q-74 14 -134 58.5t-94 111.5q-35 68 -35 145q0 87 44 162q42 72 114 114q75 44 162 44q62 0 118 -22.5t99 -62.5q74 -14 134 -58.5t94 -111.5q35 -68 35 -145q0 -87 -44 -162q-42 -72 -114 -114q-75 -44 -162 -44q-62 0 -118 22.5t-99 62.5zM474 788
q-36 12 -74 12q-65 0 -120 -32.5t-87.5 -87.5t-32.5 -120q0 -60 27.5 -111.5t74.5 -84.5q-22 56 -22 116q0 72 31 137q29 62 82.5 107.5t120.5 63.5zM560 240q65 0 120 32.5t87.5 87.5t32.5 120t-32.5 120t-87.5 87.5t-120 32.5t-120 -32.5t-87.5 -87.5t-32.5 -120
t32.5 -120t87.5 -87.5t120 -32.5zM679 400q0 -23 -12 -41.5t-35.5 -30t-57.5 -11.5v-32h-17v33q-43 4 -70.5 26.5t-30.5 60.5h73q1 -13 8.5 -21.5t19.5 -11.5v63l-9 3q-29 8 -47.5 17t-32 26t-13.5 45q0 24 13.5 42.5t36.5 28t52 10.5v33h17v-33q44 -3 70 -25t30 -59h-74
q-2 12 -8.5 19.5t-17.5 10.5v-62l13 -4q29 -9 47 -18t31.5 -25.5t13.5 -43.5zM528 528q0 -10 7.5 -17.5t21.5 -13.5v58q-13 -1 -21 -8t-8 -19zM574 370q15 0 23.5 8t8.5 19.5t-8 19t-24 13.5v-60z"/>
    </g>
</svg>