<svg xmlns="http://www.w3.org/2000/svg" viewBox="0 0 1000 1000" fill="#00a4eb">
  <path d="M500 125q-102 0 -189 51q-85 50 -135 135q-51 87 -51 189t51 189q50 85 135 135q87 51 189 51t189 -51q85 -50 135 -135q51 -87 51 -189t-51 -189q-50 -85 -135 -135q-87 -51 -189 -51zM500 167q91 0 168 45q76 44 120 120q45 77 45 168t-45 168q-44 76 -120 120
q-77 45 -168 45t-168 -45q-76 -44 -120 -120q-45 -77 -45 -168t45 -168q44 -76 120 -120q77 -45 168 -45zM500 240q-71 0 -130.5 35t-94.5 94.5t-35 130.5t35 130.5t94.5 94.5t130.5 35t130.5 -35t94.5 -94.5t35 -130.5t-35 -130.5t-94.5 -94.5t-130.5 -35zM500 344
q42 0 78 21t57 57t21 78t-21 78t-57 57t-78 21t-78 -21t-57 -57t-21 -78t21 -78t57 -57t78 -21z"/>
</svg>