<svg xmlns="http://www.w3.org/2000/svg" viewBox="0 0 1000 1000" fill="#1ab3ff">
  <g transform="scale(1, -1) translate(0, -1000)">
  <path d="M912 266l-300 578q-15 32 -45.5 51t-66.5 19t-66 -18.5t-46 -50.5l-300 -579q-15 -30 -14 -62.5t18.5 -60.5t45.5 -44t62 -16h601q33 0 61 16t45 44.5t18.5 61t-13.5 61.5zM836 187q-13 -20 -36 -20h-600q-14 0 -25 7q-7 6 -11 13t-6 15q-2 13 5 26l300 579q5 11 15 17.5
t22.5 6.5t22.5 -6.5t15 -17.5l300 -579q6 -13 4 -26q-1 -9 -6 -15zM500 375q17 0 29 12t12 30v166q0 18 -12 30t-29 12t-29 -12t-12 -30v-166q0 -18 12 -30t29 -12zM542 292q0 -18 -12.5 -30t-29.5 -12t-29.5 12t-12.5 29.5t12.5 29.5t29.5 12t29.5 -12t12.5 -29zM542 292z"/>
    </g>
</svg>