<svg xmlns="http://www.w3.org/2000/svg" viewBox="0 0 1000 1000" fill="#1ab3ff">
  <g transform="scale(1, -1) translate(0, -1000)">
  <path d="M266 675q-27 -38 -42.5 -82.5t-15.5 -92.5q0 -79 40 -147q39 -66 105 -105q68 -40 147 -40q48 0 92.5 15.5t82.5 42.5zM325 734l409 -409q27 38 42.5 82.5t15.5 92.5q0 79 -40 147q-39 66 -105 105q-68 40 -147 40q-48 0 -92.5 -15.5t-82.5 -42.5zM500 125
q-102 0 -189 51q-85 50 -135 135q-51 87 -51 189t51 189q50 85 135 135q87 51 189 51t189 -51q85 -50 135 -135q51 -87 51 -189t-51 -189q-50 -85 -135 -135q-87 -51 -189 -51z"/>
    </g>
</svg>