<svg xmlns="http://www.w3.org/2000/svg" viewBox="0 0 1000 1000" fill="#1ab3ff">
  <g transform="scale(1, -1) translate(0, -1000)">
  <path d="M542 958q34 0 58.5 -24t24.5 -59v-542h125q16 0 28 11t13 26l1 213h-42q-35 0 -59 24.5t-24 59.5v104q0 8 6 14.5t14 6.5h21v83q0 17 12.5 29.5t29.5 12.5t29.5 -12.5t12.5 -29.5v-83h83v83q0 17 12 29.5t29.5 12.5t29.5 -12.5t12 -29.5v-83h21q9 0 15 -6.5t6 -14.5v-104
q0 -35 -24.5 -59.5t-58.5 -24.5h-42v-208q0 -33 -15.5 -61t-42.5 -45t-60 -19h-132v-83h21q26 0 44 -18.5t18 -44.5t-18 -44t-44 -18h-542q-26 0 -44 18t-18 44t18 44.5t44 18.5h21v708q0 35 24.5 59t58.5 24h334zM380 518l-82 -149q-11 -20 -2.5 -35t31.5 -16l29 -1l-9 -72
q-5 -43 6 -47t33 34l84 147q11 20 3 34t-31 14h-29l8 78q4 43 -8 46.5t-33 -33.5zM500 875h-250q-16 0 -28 -10.5t-13 -26.5l-1 -171q0 -16 11 -28t26 -14h255q16 0 28 10.5t13 26.5l1 171q0 18 -12.5 30t-29.5 12z"/>
    </g>
</svg>