<svg xmlns="http://www.w3.org/2000/svg" viewBox="0 0 1000 1000" fill="#d5d7db">
  <g transform="scale(1, -1) translate(0, -1000)">
  <path d="M375 167v250q0 17 12 29t30 12h166q18 0 30 -12t12 -29v-250h167v416h83v42l-375 208l-83 -41l-292 -167v-42h83v-416h167zM875 167q0 -35 -24.5 -59.5t-58.5 -24.5h-584q-34 0 -58.5 24.5t-24.5 59.5v333q-35 0 -59 24.5t-24 58.5v42q0 22 11 41.5t31 30.5l291 167
l88 44q18 9 38.5 8.5t38.5 -10.5l375 -208q20 -11 31.5 -30.5t11.5 -42.5v-42q0 -34 -24 -58.5t-59 -24.5v-333zM458 167h84v208h-84v-208z"/>
    </g>
</svg>