<svg xmlns="http://www.w3.org/2000/svg" viewBox="0 0 1000 1000" fill="#2AAD27">
  <g transform="scale(1, -1) translate(0, -1000)">
    <path d="M549 923q-22 16 -49 16t-49 -16l-375 -273q-16 -12 -25 -29.5t-9 -37.5q0 -34 24.5 -58.5t58.5 -24.5v-333q0 -35 24.5 -59.5t58.5 -24.5h167q17 0 29.5 12.5t12.5 29.5v167q0 34 24 58.5t59 24.5t59 -24.5t24 -58.5v-167q0 -17 12.5 -29.5t29.5 -12.5h167
q34 0 58.5 24.5t24.5 59.5v333q34 0 58.5 24.5t24.5 58.5q0 20 -9 37.5t-25 29.5zM583 583q0 -34 -24 -58.5t-59 -24.5t-59 24.5t-24 59t24 59t59 24.5t59 -24.5t24 -59.5z" stroke="#31882A" stroke-width="18"/>
  </g>
</svg>