<svg xmlns="http://www.w3.org/2000/svg" viewBox="0 0 1000 1000" fill="#1ab3ff">
  <g transform="scale(1, -1) translate(0, -1000)">
  <path d="M646 917q41 0 71 -28.5t33 -69.5v-152h83q33 0 57 -22.5t26 -54.5l1 -465q0 -16 -11 -28t-26 -13l-255 -1q-16 0 -28 11t-13 26l-1 47q0 34 -24 58.5t-59 24.5t-59 -24.5t-24 -58.5v-42q0 -16 -11 -28t-26 -13l-255 -1q-16 0 -28 11t-13 26l-1 463q0 33 22.5 57t54.5 26
l90 1v146q0 41 28 71t69 32zM250 250h-83v-83h83v83zM833 250h-83v-83h83v83zM250 417h-83v-84h83v84zM833 417h-83v-84h83v84zM542 417h-84q-17 0 -29 -12.5t-12 -29.5t12 -29.5t29 -12.5h84q17 0 29 12.5t12 29.5t-12 29.5t-29 12.5zM250 583h-83v-83h83v83zM833 583h-83
v-83h83v83zM542 583h-84q-17 0 -29 -12t-12 -29.5t12 -29.5t29 -12h84q17 0 29 12t12 29.5t-12 29.5t-29 12zM542 750h-84q-17 0 -29 -12t-12 -29.5t12 -29.5t29 -12h84q17 0 29 12t12 29.5t-12 29.5t-29 12z"/>
    </g>
</svg>