<svg xmlns="http://www.w3.org/2000/svg" viewBox="0 0 1000 1000" fill="#1ab3ff">
  <g transform="scale(1, -1) translate(0, -1000)">
  <path d="M176 866l648 -648l-59 -59l-80 80q-27 -16 -57 -28l-111 -150q-2 -3 -5 -4q-7 -6 -15.5 -4.5t-13.5 8.5l-111 150q-66 26 -117.5 75.5t-79.5 114.5q-29 67 -29 141q0 99 52 184l-81 81zM229 542q0 -85 47.5 -154t125.5 -99l23 -9l75 -102l75 102l23 9q13 5 25 11
l-116 117h-7q-34 0 -62.5 16.5t-45.5 45.5t-17 63v7l-116 116q-30 -58 -30 -123zM500 896q96 0 179 -49q80 -46 127 -127q48 -82 48 -178q0 -100 -52 -185l-61 61q30 58 30 124q0 73 -36.5 135.5t-98.5 99t-136 35.5q-65 1 -123 -29l-62 61q85 52 185 52zM500 667
q34 0 62.5 -17t45.5 -45.5t17 -62.5v-7l-132 131z"/>
    </g>
</svg>