<svg xmlns="http://www.w3.org/2000/svg" viewBox="0 0 1000 1000" fill="#1ab3ff">
  <g transform="scale(1, -1) translate(0, -1000)">
  <path d="M372 211q-66 26 -117.5 75.5t-79.5 114.5q-29 67 -29 141q0 96 48 178q47 81 127 127q83 49 179 49t179 -49q80 -46 127 -127q48 -82 48 -178q0 -74 -29 -141q-28 -65 -79.5 -114.5t-117.5 -75.5l-111 -150q-2 -3 -5 -4q-7 -6 -15.5 -4.5t-13.5 8.5zM500 178l75 102l23 9
q78 30 125.5 99t47.5 154q0 73 -36.5 135.5t-98.5 99t-136 36.5t-136 -36.5t-98.5 -99t-36.5 -135.5q0 -85 47.5 -154t125.5 -99l23 -9zM500 417q-34 0 -62.5 16.5t-45.5 45.5t-17 63t17 62.5t45.5 45.5t62.5 17t62.5 -17t45.5 -45.5t17 -62.5t-17 -63t-45.5 -45.5
t-62.5 -16.5zM500 583q-17 0 -29.5 -12t-12.5 -29.5t12.5 -29.5t29.5 -12t29.5 12t12.5 29.5t-12.5 29.5t-29.5 12z"/>
    </g>
</svg>