<svg xmlns="http://www.w3.org/2000/svg" viewBox="0 0 1000 1000" fill="#1ab3ff">
  <g transform="scale(1, -1) translate(0, -1000)">
  <path d="M683 899q7 -4 12 -11l126 -162q16 -21 12.5 -46.5t-23.5 -41.5q-6 -4 -12 -7l-6 -3q-12 -4 -6 -14l76 -96q16 -20 13 -46t-23 -42q-8 -7 -19 -10q-13 -5 -5 -18l3 -4l72 -87q17 -20 14.5 -46t-22.5 -42q-17 -15 -40 -15h-147v-62q0 -26 -18 -44.5t-44 -18.5t-44.5 18.5
t-18.5 44.5v62h-166v-62q0 -26 -18.5 -44.5t-44.5 -18.5t-44 18.5t-18 44.5v62h-146q-26 0 -44.5 18.5t-18.5 44.5q0 22 14 39l70 86q14 18 0 24q-19 7 -30.5 23t-11.5 37t14 38l69 88q13 17 0 23q-18 6 -29.5 22t-11.5 37t13 37l124 163q16 20 41.5 23.5t46.5 -12.5
q6 -4 11 -11l126 -162q16 -21 13 -46.5t-24 -41.5q-5 -4 -11 -7l-7 -3q-12 -4 -5 -14l76 -96q16 -20 13 -46t-24 -42q-8 -7 -18 -10q-14 -5 -6 -18l3 -4l41 -50l7 3q44 20 66 64q18 37 14 79t-31 76l-24 30q-10 10 -2 22q18 35 15.5 74.5t-24.5 72.5l-48 63l43 56
q15 20 41 23.5t46 -12.5z"/>
    </g>
</svg>