<svg xmlns="http://www.w3.org/2000/svg" viewBox="0 0 1000 1000" fill="#1ab3ff">
  <g transform="scale(1, -1) translate(0, -1000)">
  <path d="M250 875h500q34 0 62.5 -17t45.5 -45.5t17 -62.5v-500q0 -34 -17 -62.5t-45.5 -45.5t-62.5 -17h-500q-34 0 -62.5 17t-45.5 45.5t-17 62.5v500q0 34 17 62.5t45.5 45.5t62.5 17zM250 792q-17 0 -29.5 -12.5t-12.5 -29.5v-500q0 -17 12.5 -29.5t29.5 -12.5h500
q17 0 29.5 12.5t12.5 29.5v500q0 17 -12.5 29.5t-29.5 12.5h-500zM375 369v276q0 16 11.5 27t27.5 11h104q62 0 98 -33t36 -88v-1q0 -58 -41 -92q-39 -31 -100 -31h-59v-69q0 -16 -11 -27.5t-27 -11.5t-27.5 11.5t-11.5 27.5zM452 507h61q29 0 45 15t16 38v1q0 25 -16.5 39
t-45.5 14h-60v-107z"/>
    </g>
</svg>