<svg xmlns="http://www.w3.org/2000/svg" viewBox="0 0 1000 1000" fill="#1ab3ff">
  <g transform="scale(1, -1) translate(0, -1000)">
  <path d="M646 416q64 -3 125 -25l63 -22q37 -13 60 -45.5t23 -72.5v-84h-188v83h105q0 13 -8 24.5t-20 16.5l-63 22q-13 4 -25 8q-21 61 -72 95zM544 471q25 34 37 75q11 -4 23 -4q26 0 44.5 18t18.5 44v42q0 26 -18.5 44t-44.5 18q-7 0 -14 -1q-6 42 -25 79q19 6 39 6
q40 0 73.5 -20t53 -53.5t19.5 -72.5v-42q0 -39 -19.5 -72.5t-53 -53.5t-73.5 -20q-31 0 -60 13zM375 750q-35 0 -59 -24.5t-24 -58.5v-42q0 -35 24 -59t59 -24t59 24t24 59v42q0 34 -24 58.5t-59 24.5zM375 833q45 0 83.5 -22.5t61 -60.5t22.5 -83v-42q0 -45 -22.5 -83.5
t-61 -61t-83.5 -22.5t-83.5 22.5t-61 61t-22.5 83.5v42q0 45 22.5 83t61 60.5t83.5 22.5zM583 251q0 14 -7.5 24.5t-19.5 15.5l-63 22q-57 20 -118 20t-118 -20l-63 -22q-12 -5 -19.5 -15.5t-7.5 -24.5h416zM166 369l63 22q71 26 146 26t146 -26l63 -22q37 -13 60 -45.5
t23 -72.5v-84h-584v84q0 40 23 72.5t60 45.5z"/>
    </g>
</svg>