<svg xmlns="http://www.w3.org/2000/svg" viewBox="0 0 1000 1000" fill="#1ab3ff">
  <g transform="scale(1, -1) translate(0, -1000)">
  <path d="M444 642l23 26q19 21 21.5 49t-13.5 51l-67 106q-17 27 -47.5 35.5t-59.5 -4.5l-128 -62q-28 -13 -46 -37.5t-22 -55t10 -59.5q34 -75 83 -149q67 -102 154.5 -189.5t189.5 -154.5q74 -49 149 -83q29 -14 59.5 -10t55 22t37.5 46l62 128q13 29 4.5 59.5t-35.5 47.5
l-106 67q-23 16 -51 13.5t-49 -21.5l-26 -23l-4 1q-41 17 -108.5 84.5t-84.5 108.5zM726 191q-70 31 -138 77q-95 62 -176.5 143.5t-143.5 176.5q-46 68 -77 138q-5 11 -0.5 23t18.5 19l128 62l69 -106l-35 -39q-5 -5 -8 -11l-2 -9q-2 -8 -2 -16q0 -19 9 -42
q23 -57 102.5 -136.5t136.5 -102.5q23 -9 42 -9q8 0 16 2l6 1l5 2q5 3 9 7l39 34l106 -68l-62 -128q-7 -14 -19 -18.5t-23 0.5z"/>
    </g>
</svg>