<svg xmlns="http://www.w3.org/2000/svg" viewBox="0 0 1000 1000" fill="#1ab3ff">
  <g transform="scale(1, -1) translate(0, -1000)">
  <path d="M853 727l-313 173q-19 11 -40 11t-40 -11l-312 -173q-30 -16 -47.5 -45.5t-17.5 -64.5v-409q0 -33 17 -62t46 -46t62 -17h209q17 0 29 12.5t12 29.5v162q0 17 10 30t25 16q19 3 34 -9.5t15 -31.5v-167q0 -17 12 -29.5t29 -12.5h209q33 0 62 17t46 46t17 62v409
q0 35 -17.5 64.5t-46.5 45.5zM188 654l312 173l312 -173q10 -6 15.5 -15.5t5.5 -21.5v-88l-313 174q-9 5 -20 5t-20 -5l-313 -174v88q0 12 5.5 21.5t15.5 15.5zM792 167h-167v125q0 27 -11.5 52t-32.5 43t-47.5 25.5t-54.5 2.5q-44 -7 -74 -43.5t-30 -84.5v-120h-167
q-17 0 -29 12t-12 29v226l333 185l333 -185v-226q0 -17 -12 -29t-29 -12z"/>
    </g>
</svg>