<svg xmlns="http://www.w3.org/2000/svg" viewBox="0 0 1000 1000" fill="#1ab3ff">
  <g transform="scale(1, -1) translate(0, -1000)">
  <path d="M458 917q16 0 28 -11t14 -26v-130q0 -50 -21.5 -93t-59.5 -72.5t-86 -38.5v-99q19 -11 30.5 -30t11.5 -42v-208q0 -33 -22.5 -57t-54.5 -26l-6 -1q-35 0 -59.5 24.5t-24.5 59.5v208q0 23 11.5 42t30.5 30v99q-46 9 -83 37t-59 69t-24 89l-1 134q0 17 12.5 29.5t29 12.5
t28.5 -11t13 -26l1 -130q0 -34 16.5 -62.5t45.5 -45.5t62 -17t61 15.5t45.5 42.5t18.5 60l1 132q0 17 12 29.5t29 12.5zM750 917q44 0 81.5 -21.5t60 -57.5t24.5 -80l1 -50q0 -57 -35.5 -102t-90.5 -59l1 -100q19 -11 30 -30t11 -42v-208q0 -35 -24 -59.5t-59 -24.5
t-59 24.5t-24 59.5v208q0 23 11 42t30 30v95l1 5q-53 13 -88 55.5t-37 97.5l-1 50q0 45 22.5 83.5t61 61t83.5 22.5zM292 917q17 0 29 -12.5t12 -29.5v-125q0 -17 -12 -29.5t-29.5 -12.5t-29.5 12.5t-12 29.5v125q0 17 12 29.5t30 12.5z"/>
    </g>
</svg>