<svg xmlns="http://www.w3.org/2000/svg" viewBox="0 0 1000 1000" fill="#1ab3ff">
  <g transform="scale(1, -1) translate(0, -1000)">
  <path d="M542 208h166v584h-166v-84q0 -17 -12.5 -29t-29.5 -12t-29.5 12t-12.5 29v84h-166v-584h166v84q0 17 12.5 29t29.5 12t29.5 -12t12.5 -29v-84zM292 875h125h291q35 0 59.5 -24.5t24.5 -58.5v-584q0 -34 -24.5 -58.5t-59.5 -24.5h-416q-35 0 -59.5 24.5t-24.5 58.5v584
q0 34 24.5 58.5t59.5 24.5zM500 583q17 0 29.5 -12t12.5 -29v-84q0 -17 -12.5 -29t-29.5 -12t-29.5 12t-12.5 29v84q0 17 12.5 29t29.5 12z"/>
    </g>
</svg>