<svg xmlns="http://www.w3.org/2000/svg" viewBox="0 0 1000 1000" fill="#1ab3ff">
  <g transform="scale(1, -1) translate(0, -1000)">
  <path d="M833 461v-94q0 -22 -11 -41t-30 -31l-250 -146q-19 -11 -42 -11t-42 11l-166 98v139l165 -96q17 -10 38 -11t39 7l7 4zM542 892l335 -195q29 -17 38 -50.5t-8 -63.5q-11 -19 -30 -30l-335 -195q-19 -12 -42 -12t-42 12l-111 65q-15 9 -19.5 25.5t4.5 31.5q6 10 16 16
l174 99q13 7 17 21t-3.5 26.5t-22.5 16t-28 -3.5l-193 -108q-19 -11 -30.5 -30.5t-11.5 -42.5v-266q0 -17 -12 -29t-29.5 -12t-29.5 12t-12 29v320l-44 25q-29 17 -38 50.5t8 63.5q11 19 30 30l335 195q19 12 42 12t42 -12z"/>
    </g>
</svg>