<svg xmlns="http://www.w3.org/2000/svg" viewBox="0 0 1000 1000" fill="#1ab3ff">
  <g transform="scale(1, -1) translate(0, -1000)">
  <path d="M250 792q41 0 79.5 12.5t70.5 37.5l50 37q22 17 50 17t50 -17l50 -37q32 -25 70.5 -37.5t79.5 -12.5h42q17 0 29 -12.5t12 -29.5v-295q0 -86 -45 -158.5t-121 -110.5l-130 -64q-18 -8 -37 -8t-37 8l-130 64q-76 38 -121 110.5t-45 158.5v295q0 17 12 29.5t29 12.5h42z
M250 455q0 -62 32.5 -114.5t87.5 -79.5l130 -64l130 64q55 27 87.5 79.5t32.5 114.5v253q-54 0 -105.5 17.5t-94.5 49.5l-50 38l-50 -38q-43 -32 -94.5 -49.5t-105.5 -17.5v-253zM500 408l-72 -31q-6 -3 -12.5 -0.5t-9.5 8.5q-2 4 -1 9l8 78l-52 58q-5 5 -4.5 12t5.5 12
q3 3 7 4l77 16l40 68q3 6 9.5 7.5t12.5 -1.5q4 -2 6 -6l40 -68l77 -16q6 -2 10 -8t2 -12q-1 -5 -4 -8l-52 -58l8 -78q1 -7 -3.5 -12.5t-11.5 -6.5q-4 0 -8 2z"/>
    </g>
</svg>