<svg xmlns="http://www.w3.org/2000/svg" viewBox="0 0 1000 1000" fill="#1ab3ff">
  <g transform="scale(1, -1) translate(0, -1000)">
  <path d="M854 667l-46 125h-623l-42 -125h711zM875 583h-750v-95q0 -9 8 -12l5 -2q20 -7 38 4l9 5q40 24 86 24t86 -24l9 -5q13 -8 26 -1l33 16q36 18 75 18t75 -18l33 -16q13 -7 26 1l9 5q40 24 86 24t86 -24l9 -5q18 -11 38 -4l5 2q8 3 8 12v95zM875 391v-224q0 -18 -12 -30
t-30 -12h-666q-18 0 -30 12t-12 30v224q-8 2 -15 5l-6 2q-28 10 -45 35t-17 55v137l64 193q9 26 30.5 41.5t48.5 15.5h623q27 0 48.5 -15t30.5 -40l71 -195v-137q0 -30 -17 -55t-45 -35l-6 -2q-7 -3 -15 -5zM792 401q-6 2 -11 5l-9 6q-20 12 -43 12t-43 -12l-9 -6
q-5 -3 -10 -5v-193h125v193zM583 208v189q-6 2 -12 5l-34 17q-17 9 -37 9t-37 -9l-34 -17q-25 -13 -53.5 -11.5t-52.5 15.5l-9 6q-20 12 -43 12t-43 -12l-20 -11v-193h375z"/>
    </g>
</svg>