<svg xmlns="http://www.w3.org/2000/svg" viewBox="0 0 1000 1000" fill="#1ab3ff">
  <g transform="scale(1, -1) translate(0, -1000)">
  <path d="M333 667v-84q0 -76 33 -144q31 -65 87.5 -112t127.5 -66q-7 -61 -42 -111t-89 -79t-117 -29h-41q-68 0 -125.5 33.5t-91 91t-33.5 125.5v291q0 35 24 59.5t59 24.5h208zM312 285q-71 0 -127 -50q-11 -10 -12 -24.5t9 -25.5t24.5 -12t25.5 9q36 32 80.5 32.5t80.5 -32.5
q11 -10 25.5 -9t24.5 11.5t9 25.5t-11 24q-57 52 -129 51zM875 958q35 0 59 -24t24 -59v-292q0 -68 -33.5 -125t-91 -91t-125.5 -34h-41q-68 0 -125.5 34t-91 91t-33.5 125v292q0 35 24 59t59 24h375zM208 542q-16 0 -27.5 -11t-13.5 -26v-47q0 -17 12 -29t28.5 -12
t28.5 10.5t14 25.5v47q0 17 -12 29.5t-30 12.5zM758 595q-11 -31 -28 -45.5t-42.5 -14.5t-42.5 14.5t-28 45.5q-5 14 -18.5 20.5t-27.5 1.5t-20 -18.5t-1 -27.5q19 -52 54 -79t83.5 -27t83.5 27t54 79q5 14 -1 27.5t-20 18.5t-27.5 -1.5t-18.5 -20.5zM583 833
q-16 0 -27.5 -10.5t-13.5 -25.5v-47q0 -17 12 -29.5t28.5 -12.5t28.5 11t14 26v47q0 17 -12 29t-30 12zM792 833q-16 0 -28 -10.5t-14 -25.5v-47q0 -17 12 -29.5t29 -12.5t28.5 11t13.5 26v47q0 17 -12 29t-29 12z"/>
    </g>
</svg>