<svg xmlns="http://www.w3.org/2000/svg" viewBox="0 0 1000 1000" fill="#1ab3ff">
  <g transform="scale(1, -1) translate(0, -1000)">
  <path d="M417 958q-18 0 -30 -12t-12 -29v-42q0 -17 12 -29.5t30 -12.5h166q18 0 30 12.5t12 29.5v42q0 17 -12 29t-30 12h-166zM42 667q0 34 24 58.5t59 24.5h42v83q0 35 24 59.5t59 24.5h42v-84h-42v-83h500v83h-42v84h42q35 0 59 -24.5t24 -59.5v-83h42q35 0 59 -24.5t24 -58.5
v-209q0 -17 -12 -29t-29 -12v-250q0 -35 -24.5 -59.5t-59.5 -24.5h-666q-35 0 -59.5 24.5t-24.5 59.5v250q-17 0 -29 12t-12 29v209zM625 417h-250v-84q0 -17 -12 -29t-29.5 -12t-29.5 12t-12 29v84h-125v-250h666v250h-125v-84q0 -17 -12 -29t-29.5 -12t-29.5 12t-12 29v84
zM625 500h-250v42q0 17 -12 29t-29.5 12t-29.5 -12t-12 -29v-42h-167v167h750v-167h-167v42q0 17 -12 29t-29.5 12t-29.5 -12t-12 -29v-42z"/>
    </g>
</svg>