<svg xmlns="http://www.w3.org/2000/svg" viewBox="0 0 1000 1000" fill="#1ab3ff">
  <g transform="scale(1, -1) translate(0, -1000)">
  <path d="M806 811l-262 98q-44 16 -88 0l-262 -98q-12 -5 -19.5 -15.5t-7.5 -23.5v-55h666v55q0 13 -7.5 23.5t-19.5 15.5zM917 592q0 17 -12.5 29t-29.5 12h-750q-17 0 -29.5 -12t-12.5 -29v-459q0 -17 12.5 -29t29.5 -12h250q17 0 29.5 12t12.5 29v84q0 34 24 58.5t59 24.5
t59 -24.5t24 -58.5v-84q0 -17 12.5 -29t29.5 -12h250q17 0 29.5 12t12.5 29v459zM708 508q0 18 12.5 30t29.5 12t29.5 -12t12.5 -30v-208q0 -17 -12.5 -29.5t-29.5 -12.5t-29.5 12.5t-12.5 29.5v208zM208 508q0 18 12.5 30t29.5 12t29.5 -12t12.5 -30v-208
q0 -17 -12.5 -29.5t-29.5 -12.5t-29.5 12.5t-12.5 29.5v208zM542 508q0 18 12 30t29.5 12t29.5 -12t12 -30v-83q0 -17 -12 -29.5t-29.5 -12.5t-29.5 12.5t-12 29.5v83zM375 508q0 18 12 30t29.5 12t29.5 -12t12 -30v-83q0 -17 -12 -29.5t-29.5 -12.5t-29.5 12.5t-12 29.5v83
z"/>
    </g>
</svg>